<svg width="596" height="565" viewBox="0 0 596 565" fill="none" xmlns="http://www.w3.org/2000/svg">
<mask id="mask0_39_145" style="mask-type:alpha" maskUnits="userSpaceOnUse" x="-352" y="-95" width="948" height="660">
<path d="M-157.64 259.671C-132.433 299.419 -94.8024 330.505 -50.2109 347.463L-175.769 565L-352 259.671H-157.64ZM307.895 324.689C329.51 330.071 348.636 341.743 363.208 357.649L280.629 433.149L362.721 508.825C342.323 530.806 313.172 544.564 280.806 544.564C219.125 544.564 169.123 494.603 169.123 432.973C169.123 386.771 197.223 347.127 237.278 330.174L271.004 388.605L307.895 324.689ZM27.7256 -77.1182C148.871 -77.1179 247.079 21.1181 247.079 142.299C247.079 147.406 246.904 152.472 246.561 157.491H137.608L204.127 272.737C164.167 326.72 100.032 361.716 27.7256 361.716C0.277527 361.716 -25.9933 356.673 -50.2109 347.463L0.461914 259.671H-157.64C-179.165 225.728 -191.629 185.47 -191.629 142.299C-191.629 21.118 -93.4204 -77.1182 27.7256 -77.1182ZM397.886 248.243L374.951 208.509L404.399 157.491H345.505L374.951 208.509L307.895 324.689C299.221 322.53 290.148 321.382 280.806 321.382C265.364 321.382 250.654 324.512 237.278 330.174L204.127 272.737C228.296 240.087 243.621 200.491 246.561 157.491H345.505L199.771 -95H596L397.886 248.243Z" fill="black"/>
</mask>
<g mask="url(#mask0_39_145)">
<path d="M363.052 357.515L280.473 433.015L362.564 508.691C342.167 530.672 313.016 544.429 280.649 544.429C218.969 544.429 168.967 494.469 168.967 432.839C168.967 371.209 218.969 321.248 280.649 321.248C313.275 321.248 342.633 335.226 363.052 357.515Z" fill="#00B89D"/>
<path d="M-175.925 564.866L-352.156 259.537L0.306046 259.537L-175.925 564.866Z" fill="#CADB36"/>
<path d="M270.848 388.471L137.452 157.357L404.244 157.357L270.848 388.471Z" fill="#EF4044"/>
<path d="M397.729 248.108L199.615 -95.1346L595.844 -95.1346L397.729 248.108Z" fill="#B41E8E"/>
<ellipse cx="27.5691" cy="142.164" rx="219.354" ry="219.417" fill="#20C4F4"/>
</g>
</svg>
