<svg width="575" height="432" viewBox="0 0 575 432" fill="none" xmlns="http://www.w3.org/2000/svg">
<mask id="mask0_39_246" style="mask-type:alpha" maskUnits="userSpaceOnUse" x="0" y="0" width="1032" height="719">
<path d="M211.582 386.376C239.022 429.677 279.987 463.542 328.53 482.017L191.847 719L0 386.376H211.582ZM718.366 457.207C741.897 463.069 762.718 475.785 778.581 493.113L688.685 575.362L778.05 657.804C755.845 681.75 724.111 696.737 688.877 696.737C621.731 696.737 567.298 642.31 567.298 575.171C567.298 524.839 597.888 481.652 641.493 463.183L678.207 526.837L718.366 457.207ZM413.372 19.4795C545.252 19.4797 652.162 126.498 652.162 258.512C652.162 264.075 651.972 269.594 651.599 275.062H532.991L605.403 400.611C561.903 459.419 492.086 497.544 413.372 497.544C383.492 497.544 354.894 492.05 328.53 482.017L383.693 386.376H211.582C188.15 349.399 174.581 305.542 174.581 258.512C174.581 126.498 281.492 19.4795 413.372 19.4795ZM791.365 330.641L718.366 457.207C708.925 454.855 699.047 453.605 688.877 453.604C672.068 453.604 656.055 457.015 641.493 463.183L605.403 400.611C631.714 365.042 648.398 321.907 651.599 275.062H759.31L791.365 330.641ZM816.331 373.927L791.365 330.641L823.422 275.062H759.31L600.662 0H1032L816.331 373.927Z" fill="black"/>
</mask>
<g mask="url(#mask0_39_246)">
<path d="M191.676 718.854L-0.170044 386.23L383.523 386.23L191.676 718.854Z" fill="#F99D27"/>
<path d="M678.037 526.691L532.822 274.916H823.252L678.037 526.691Z" fill="#0DB14B"/>
<ellipse cx="413.202" cy="258.365" rx="238.791" ry="239.032" fill="#20C4F4"/>
</g>
</svg>
